<svg height="782" width="720" xmlns="http://www.w3.org/2000/svg">
<rect height="782" fill="#555" width="720"></rect>
<text fill="#7f7" font-family="Courier New" font-size="12" xml:space="preserve">
<tspan x="10" y="26">15 megabytes installed</tspan>
<tspan x="10" y="42"></tspan>
<tspan x="10" y="58">node_modules</tspan>
<tspan x="10" y="74">└─┬ babel-preset-es2015-node5@1.2.0 </tspan>
<tspan x="10" y="90">  ├─┬ babel-plugin-transform-es2015-destructuring@6.23.0 </tspan>
<tspan x="10" y="106">  │ └─┬ babel-runtime@6.23.0 </tspan>
<tspan x="10" y="122">  │   ├── core-js@2.4.1 </tspan>
<tspan x="10" y="138">  │   └── regenerator-runtime@0.10.3 </tspan>
<tspan x="10" y="154">  ├─┬ babel-plugin-transform-es2015-function-name@6.24.1 </tspan>
<tspan x="10" y="170">  │ ├── babel-helper-function-name@6.24.1 </tspan>
<tspan x="10" y="186">  │ └─┬ babel-types@6.24.1 </tspan>
<tspan x="10" y="202">  │   ├── esutils@2.0.2 </tspan>
<tspan x="10" y="218">  │   ├── lodash@4.17.4 </tspan>
<tspan x="10" y="234">  │   └── to-fast-properties@1.0.2 </tspan>
<tspan x="10" y="250">  ├─┬ babel-plugin-transform-es2015-modules-commonjs@6.24.1 </tspan>
<tspan x="10" y="266">  │ ├── babel-plugin-transform-strict-mode@6.24.1 </tspan>
<tspan x="10" y="282">  │ └─┬ babel-template@6.24.1 </tspan>
<tspan x="10" y="298">  │   └── babylon@6.16.1 </tspan>
<tspan x="10" y="314">  ├─┬ babel-plugin-transform-es2015-parameters@6.24.1 </tspan>
<tspan x="10" y="330">  │ ├─┬ babel-helper-call-delegate@6.24.1 </tspan>
<tspan x="10" y="346">  │ │ └── babel-helper-hoist-variables@6.24.1 </tspan>
<tspan x="10" y="362">  │ ├── babel-helper-get-function-arity@6.24.1 </tspan>
<tspan x="10" y="378">  │ └─┬ babel-traverse@6.24.1 </tspan>
<tspan x="10" y="394">  │   ├─┬ babel-code-frame@6.22.0 </tspan>
<tspan x="10" y="410">  │   │ ├─┬ chalk@1.1.3 </tspan>
<tspan x="10" y="426">  │   │ │ ├── ansi-styles@2.2.1 </tspan>
<tspan x="10" y="442">  │   │ │ ├── escape-string-regexp@1.0.5 </tspan>
<tspan x="10" y="458">  │   │ │ ├─┬ has-ansi@2.0.0 </tspan>
<tspan x="10" y="474">  │   │ │ │ └── ansi-regex@2.1.1 </tspan>
<tspan x="10" y="490">  │   │ │ ├── strip-ansi@3.0.1 </tspan>
<tspan x="10" y="506">  │   │ │ └── supports-color@2.0.0 </tspan>
<tspan x="10" y="522">  │   │ └── js-tokens@3.0.1 </tspan>
<tspan x="10" y="538">  │   ├── babel-messages@6.23.0 </tspan>
<tspan x="10" y="554">  │   ├─┬ debug@2.6.3 </tspan>
<tspan x="10" y="570">  │   │ └── ms@0.7.2 </tspan>
<tspan x="10" y="586">  │   ├── globals@9.17.0 </tspan>
<tspan x="10" y="602">  │   └─┬ invariant@2.2.2 </tspan>
<tspan x="10" y="618">  │     └── loose-envify@1.3.1 </tspan>
<tspan x="10" y="634">  ├── babel-plugin-transform-es2015-shorthand-properties@6.24.1 </tspan>
<tspan x="10" y="650">  ├─┬ babel-plugin-transform-es2015-sticky-regex@6.24.1 </tspan>
<tspan x="10" y="666">  │ └── babel-helper-regex@6.24.1 </tspan>
<tspan x="10" y="682">  └─┬ babel-plugin-transform-es2015-unicode-regex@6.24.1 </tspan>
<tspan x="10" y="698">    └─┬ regexpu-core@2.0.0 </tspan>
<tspan x="10" y="714">      ├── regenerate@1.3.2 </tspan>
<tspan x="10" y="730">      ├── regjsgen@0.2.0 </tspan>
<tspan x="10" y="746">      └─┬ regjsparser@0.1.5 </tspan>
<tspan x="10" y="762">        └── jsesc@0.5.0</tspan>
</text>
</svg>
